<svg id="Capa_1" enable-background="new 0 0 512 512" height="512" viewBox="0 0 512 512" width="512" xmlns="http://www.w3.org/2000/svg" xmlns:xlink="http://www.w3.org/1999/xlink"><radialGradient id="SVGID_1_" cx="285.169" cy="133.626" gradientTransform="matrix(-.705 -.71 .708 -.703 391.426 429.98)" gradientUnits="userSpaceOnUse" r="237.287"><stop offset=".0071" stop-color="#da4a54"/><stop offset=".3007" stop-color="#d03944"/><stop offset=".6926" stop-color="#c62a35"/><stop offset="1" stop-color="#c32430"/></radialGradient><radialGradient id="SVGID_2_" cx="270.283" cy="2570.897" gradientTransform="matrix(.931 0 0 .112 11.619 196.033)" gradientUnits="userSpaceOnUse" r="241.318"><stop offset="0" stop-color="#e28086"/><stop offset=".0144" stop-color="#e38389"/><stop offset=".3395" stop-color="#f1bcc0"/><stop offset=".4957" stop-color="#f6d3d5"/><stop offset=".5083" stop-color="#f6d5d7"/><stop offset=".6494" stop-color="#fbeced"/><stop offset=".7824" stop-color="#fefafa"/><stop offset=".8982" stop-color="#fff"/></radialGradient><radialGradient id="SVGID_3_" cx="39.255" cy="1.872" gradientTransform="matrix(1 0 0 .949 0 .096)" gradientUnits="userSpaceOnUse" r="73.563"><stop offset=".0336" stop-color="#fbe2dd"/><stop offset=".3951" stop-color="#e4989d"/><stop offset=".8925" stop-color="#e28086"/></radialGradient><linearGradient id="lg1"><stop offset="0" stop-color="#a298a5"/><stop offset=".4261" stop-color="#a096a3"/><stop offset=".6067" stop-color="#998f9c"/><stop offset=".7408" stop-color="#8c848f"/><stop offset=".852" stop-color="#7b737e"/><stop offset=".9479" stop-color="#645e67"/><stop offset="1" stop-color="#544f57"/></linearGradient><radialGradient id="SVGID_4_" cx="129.276" cy="88.819" gradientTransform="matrix(-.705 -.71 .708 -.703 157.438 243.03)" gradientUnits="userSpaceOnUse" r="90.142" xlink:href="#lg1"/><radialGradient id="SVGID_5_" cx="11.764" cy="-56.892" gradientTransform="matrix(.966 -.259 .314 1.171 41.838 104.405)" gradientUnits="userSpaceOnUse" r="62.408"><stop offset="0" stop-color="#fffbe4"/><stop offset=".0842" stop-color="#fefade"/><stop offset=".483" stop-color="#fbf4c6"/><stop offset=".7513" stop-color="#fbf3c4"/><stop offset=".8923" stop-color="#faf2bc"/><stop offset="1" stop-color="#f9efaf"/></radialGradient><radialGradient id="SVGID_6_" cx="285.169" cy="133.626" gradientTransform="matrix(-.705 -.71 .708 -.703 391.426 429.98)" gradientUnits="userSpaceOnUse" r="237.287"><stop offset="0" stop-color="#6bbef6"/><stop offset=".0065" stop-color="#6bbdf6"/><stop offset=".3886" stop-color="#5da3de"/><stop offset=".7315" stop-color="#5594d0"/><stop offset="1" stop-color="#528ecb"/></radialGradient><radialGradient id="SVGID_7_" cx="285.169" cy="118.275" gradientTransform="matrix(-.705 -.71 .708 -.703 402.3 403.832)" gradientUnits="userSpaceOnUse" r="267.376"><stop offset="0" stop-color="#9bd069"/><stop offset=".3725" stop-color="#8bc650"/><stop offset=".7245" stop-color="#81c041"/><stop offset="1" stop-color="#7dbe3b"/></radialGradient><radialGradient id="SVGID_8_" cx="213.127" cy="428.243" gradientTransform="matrix(1 0 0 .809 0 81.765)" gradientUnits="userSpaceOnUse" r="69.618"><stop offset=".303" stop-color="#756e78"/><stop offset=".5733" stop-color="#726b75"/><stop offset=".7801" stop-color="#68626b"/><stop offset=".9654" stop-color="#58535b"/><stop offset="1" stop-color="#544f57"/></radialGradient><radialGradient id="SVGID_9_" cx="245.379" cy="336.94" gradientTransform="matrix(-.762 -.648 .647 -.76 214.2 752.121)" gradientUnits="userSpaceOnUse" r="77.203"><stop offset="0" stop-color="#a71f29"/><stop offset=".1515" stop-color="#ae202b"/><stop offset=".627" stop-color="#bd232f"/><stop offset="1" stop-color="#c32430"/></radialGradient><linearGradient id="lg2"><stop offset="0" stop-color="#e28086"/><stop offset=".0546" stop-color="#df787e"/><stop offset=".3306" stop-color="#d3545d"/><stop offset=".5886" stop-color="#ca3944"/><stop offset=".8194" stop-color="#c52a35"/><stop offset="1" stop-color="#c32430"/></linearGradient><radialGradient id="SVGID_10_" cx="278.377" cy="85.429" gradientTransform="matrix(-.762 -.648 .647 -.76 435.073 330.812)" gradientUnits="userSpaceOnUse" r="190.305" xlink:href="#lg2"/><radialGradient id="SVGID_11_" cx="32.569" cy="247.066" gradientTransform="matrix(.356 -.935 .598 .228 -126.86 221.193)" gradientUnits="userSpaceOnUse" r="322.908"><stop offset=".0166" stop-color="#ffdace"/><stop offset=".0256" stop-color="#fed7cc"/><stop offset=".1875" stop-color="#ebaaaa"/><stop offset=".2688" stop-color="#e4989d"/><stop offset=".3515" stop-color="#df858b"/><stop offset=".6705" stop-color="#cb3f4a"/><stop offset=".8194" stop-color="#c32430"/></radialGradient><radialGradient id="SVGID_12_" cx="277.126" cy="450.268" gradientTransform="matrix(1 0 0 .809 0 85.97)" gradientUnits="userSpaceOnUse" r="84.307"><stop offset="0" stop-color="#f9f6f9"/><stop offset=".4401" stop-color="#8b818e"/><stop offset=".5944" stop-color="#817884"/><stop offset=".8581" stop-color="#655f68"/><stop offset="1" stop-color="#544f57"/></radialGradient><radialGradient id="SVGID_13_" cx="294.235" cy="461.386" gradientUnits="userSpaceOnUse" r="57.929"><stop offset=".0161" stop-color="#f9f6f9"/><stop offset=".0737" stop-color="#e1dce1"/><stop offset=".1739" stop-color="#bcb5bd"/><stop offset=".266" stop-color="#a198a3"/><stop offset=".3461" stop-color="#918794"/><stop offset=".4052" stop-color="#8b818e"/><stop offset=".5516" stop-color="#857b88"/><stop offset=".7538" stop-color="#736b76"/><stop offset=".9877" stop-color="#565159"/><stop offset="1" stop-color="#544f57"/></radialGradient><radialGradient id="SVGID_14_" cx="234.626" cy="461.68" gradientUnits="userSpaceOnUse" r="53.269"><stop offset=".0161" stop-color="#efecef"/><stop offset=".0733" stop-color="#e0dce0"/><stop offset=".2321" stop-color="#bbb5bd"/><stop offset=".3778" stop-color="#a198a3"/><stop offset=".5046" stop-color="#918794"/><stop offset=".5983" stop-color="#8b818e"/></radialGradient><radialGradient id="SVGID_15_" cx="236.48" cy="333.485" gradientTransform="matrix(-.762 -.648 .647 -.76 200.76 740.272)" gradientUnits="userSpaceOnUse" r="77.203"><stop offset="0" stop-color="#e28086"/><stop offset=".2821" stop-color="#de5e67"/><stop offset=".5588" stop-color="#db4350"/><stop offset=".8063" stop-color="#d93442"/><stop offset="1" stop-color="#d82e3d"/></radialGradient><radialGradient id="SVGID_16_" cx="251.833" cy="360.737" gradientTransform="matrix(-.762 -.648 .647 -.76 210.169 798.19)" gradientUnits="userSpaceOnUse" r="66.972"><stop offset="0" stop-color="#e4989d"/><stop offset=".0953" stop-color="#e2898f"/><stop offset=".3684" stop-color="#de626c"/><stop offset=".6194" stop-color="#db4552"/><stop offset=".838" stop-color="#d93443"/><stop offset="1" stop-color="#d82e3d"/></radialGradient><radialGradient id="SVGID_17_" cx="357.826" cy="153.236" gradientTransform="matrix(-.705 -.71 .708 -.703 501.382 514.941)" gradientUnits="userSpaceOnUse" r="330.889" xlink:href="#lg2"/><radialGradient id="SVGID_18_" cx="348.772" cy="179.64" gradientTransform="matrix(-.705 -.71 .708 -.703 467.244 553.492)" gradientUnits="userSpaceOnUse" r="291.445"><stop offset="0" stop-color="#bcdf95"/><stop offset=".0419" stop-color="#b8dd8f"/><stop offset=".3216" stop-color="#9ecf6b"/><stop offset=".5831" stop-color="#8cc650"/><stop offset=".817" stop-color="#81c041"/><stop offset="1" stop-color="#7dbe3b"/></radialGradient><linearGradient id="lg3"><stop offset=".5166" stop-color="#da4a54"/><stop offset=".7251" stop-color="#d84852"/><stop offset=".8275" stop-color="#d0424c"/><stop offset=".9068" stop-color="#c33741"/><stop offset=".9737" stop-color="#b12731"/><stop offset="1" stop-color="#a71f29"/></linearGradient><radialGradient id="SVGID_19_" cx="165.81" cy="83.074" gradientTransform="matrix(1 0 0 .949 0 4.275)" gradientUnits="userSpaceOnUse" r="70.763" xlink:href="#lg3"/><radialGradient id="SVGID_20_" cx="124.081" cy="26.361" gradientTransform="matrix(.963 -.268 .254 .914 -2.163 35.515)" gradientUnits="userSpaceOnUse" r="72.975"><stop offset="0" stop-color="#a71f29"/><stop offset=".828" stop-color="#da4a54"/></radialGradient><radialGradient id="SVGID_21_" cx="57.805" cy="86.073" gradientTransform="matrix(.82 -.573 .604 .864 -41.555 44.839)" gradientUnits="userSpaceOnUse" r="117.004"><stop offset="0" stop-color="#eab1b7"/><stop offset=".0242" stop-color="#eaafb5"/><stop offset=".7229" stop-color="#e28086"/><stop offset=".8085" stop-color="#e27d83"/><stop offset=".8773" stop-color="#e0737a"/><stop offset=".9401" stop-color="#de626a"/><stop offset=".9992" stop-color="#da4a54"/><stop offset="1" stop-color="#da4a54"/></radialGradient><radialGradient id="SVGID_22_" cx="123.202" cy="94.883" gradientTransform="matrix(.82 -.573 .604 .864 -35.075 83.51)" gradientUnits="userSpaceOnUse" r="58.94"><stop offset="0" stop-color="#da4a54"/><stop offset=".6226" stop-color="#e28086"/></radialGradient><linearGradient id="lg4"><stop offset="0" stop-color="#f1f1f4"/><stop offset=".4206" stop-color="#efeff2"/><stop offset=".6419" stop-color="#e8e7eb"/><stop offset=".8168" stop-color="#dcd9de"/><stop offset=".9666" stop-color="#cbc6cd"/><stop offset="1" stop-color="#c6c1c8"/></linearGradient><radialGradient id="SVGID_23_" cx="140.053" cy="53.911" gradientTransform="matrix(1 0 0 1.212 0 -11.425)" gradientUnits="userSpaceOnUse" r="11.254" xlink:href="#lg4"/><radialGradient id="SVGID_24_" cx="118.861" cy="200.552" gradientTransform="matrix(.356 -.935 .598 .228 -43.451 265.92)" gradientUnits="userSpaceOnUse" r="215.918"><stop offset=".0166" stop-color="#e4d5f4"/><stop offset=".0762" stop-color="#e4cbe6"/><stop offset=".1874" stop-color="#e4b2c3"/><stop offset=".2886" stop-color="#e4989d"/><stop offset=".3908" stop-color="#de838a"/><stop offset=".6713" stop-color="#d05059"/><stop offset=".883" stop-color="#c6303b"/><stop offset="1" stop-color="#c32430"/></radialGradient><radialGradient id="SVGID_25_" cx="118.861" cy="200.552" gradientTransform="matrix(.356 -.935 .598 .228 -43.451 265.92)" gradientUnits="userSpaceOnUse" r="215.918"><stop offset=".0166" stop-color="#e4d5f4"/><stop offset=".0886" stop-color="#dfd9e6"/><stop offset=".2231" stop-color="#d2e2c3"/><stop offset=".2886" stop-color="#cbe7af"/><stop offset=".3908" stop-color="#bde09a"/><stop offset=".6713" stop-color="#9bce67"/><stop offset=".883" stop-color="#85c247"/><stop offset="1" stop-color="#7dbe3b"/></radialGradient><radialGradient id="SVGID_26_" cx="357.826" cy="142.418" gradientTransform="matrix(-.705 -.71 .708 -.703 509.045 496.516)" gradientUnits="userSpaceOnUse" r="237.287"><stop offset="0" stop-color="#75cef9"/><stop offset=".1665" stop-color="#6cbded"/><stop offset=".4869" stop-color="#5ea3da"/><stop offset=".7747" stop-color="#5594cf"/><stop offset="1" stop-color="#528ecb"/></radialGradient><radialGradient id="SVGID_27_" cx="118.861" cy="200.552" gradientTransform="matrix(.356 -.935 .598 .228 -43.451 265.92)" gradientUnits="userSpaceOnUse" r="215.918"><stop offset=".2898" stop-color="#b1e4f9"/><stop offset=".6155" stop-color="#7eb6e0"/><stop offset=".8632" stop-color="#5e99d1"/><stop offset="1" stop-color="#528ecb"/></radialGradient><radialGradient id="SVGID_28_" cx="128.073" cy="-13.138" gradientTransform="matrix(.966 -.259 .246 .916 38.542 92.106)" gradientUnits="userSpaceOnUse" r="101.059" xlink:href="#lg3"/><radialGradient id="SVGID_29_" cx="135.505" cy="-10.149" gradientTransform="matrix(1.187 -.318 .314 1.171 -20.697 110.906)" gradientUnits="userSpaceOnUse" r="57.747" xlink:href="#lg4"/><radialGradient id="SVGID_30_" cx="83.719" cy="10.432" gradientTransform="matrix(-.864 -.503 .502 -.863 189.396 132.287)" gradientUnits="userSpaceOnUse" r="59.87" xlink:href="#lg1"/><radialGradient id="SVGID_31_" cx="55.727" cy="-1.87" gradientTransform="matrix(.966 -.259 .314 1.171 38.82 93.142)" gradientUnits="userSpaceOnUse" r="57.733"><stop offset="0" stop-color="#f9efaf"/><stop offset=".3172" stop-color="#f9eead"/><stop offset=".4841" stop-color="#f8eca5"/><stop offset=".6161" stop-color="#f7e797"/><stop offset=".7297" stop-color="#f5e084"/><stop offset=".8316" stop-color="#f2d86b"/><stop offset=".9236" stop-color="#efce4d"/><stop offset="1" stop-color="#ecc32e"/></radialGradient><g><path d="m164.552 117.87c-9.656-3.413-20.129-3.772-29.996-1.028-20.106 5.591-34.61 23.104-36.356 43.899-.748 8.906-.664 17.738.197 26.406l44.259-1.337 53.422-55.06c-10.259-4.78-20.778-9.082-31.526-12.88z" fill="url(#SVGID_1_)"/><path d="m259.131 512c129.256 0 234.039-12.838 234.039-29.005h-468.079c0 16.167 104.783 29.005 234.04 29.005z" fill="url(#SVGID_2_)"/><path d="m123.619 4.285-.212-4.283h-24.033c-6.596-.054-13.308.771-19.989 2.561l-26.126 7c-8.016 2.148-12.773 10.387-10.625 18.403l15.442 57.632 112.786-30.221c-6.614-24.684-24.85-43.151-47.243-51.092z" fill="url(#SVGID_3_)"/><path d="m66.69 75.48-25.02 6.704 3.478 6.298c4.665 8.448 13.678 13.298 23.017 12.839l-.004.03h24.115z" fill="url(#SVGID_4_)"/><path d="m74.762 111.577-13.429-32.811 6.517-50.799h-25.216l-7.128 7.128c-14.382 14.382-19.999 35.345-14.735 54.991 3.397 12.676 14.884 21.49 28.007 21.49h.768 25.216z" fill="url(#SVGID_5_)"/><path d="m377.696 366.691c-.838-35.784-11.195-70.698-30.006-101.15-23.376-37.842-53.493-70.654-88.559-96.989l-55.36 4.696-84.257 75.911c15.135 24.313 37.501 44.163 65.058 56.136l193.657 84.139z" fill="url(#SVGID_6_)"/><path d="m186.282 115.018-87.885 72.129c2.212 22.261 9.554 43.44 21.116 62.014l139.617-80.608c-19.578-14.704-50.496-43.122-72.848-53.535z" fill="url(#SVGID_7_)"/><path d="m289.489 466.198h-17.341v-47.746l-15.585-11.837-7.047 38.41c-2.25 12.266-12.941 21.173-25.411 21.173h-33.755c-9.277 0-16.797 7.52-16.797 16.797h132.732c0-9.277-7.52-16.797-16.796-16.797z" fill="url(#SVGID_8_)"/><path d="m234.035 294.041c-15.562 1.733-28.172 14.24-30.016 29.789-1.029 8.674 1.194 16.801 5.609 23.323 4.885 7.215 8.456 15.233 10.558 23.688l2.156 8.672c5.688 22.878 26.231 38.939 49.805 38.939v-90.442c.001-20.174-17.473-36.267-38.112-33.969z" fill="url(#SVGID_9_)"/><path d="m123.63 109.799c0 7.537 4.935 16.385 2.558 23.538-9.616 28.935-6.98 55.574 3.832 84.084 16.53 43.588 39.338 83.581 79.55 107.166l270.087 158.409c-18.98-72.637-54.635-139.847-104.134-196.293l-70.502-80.397-61.774-65.62c-10.433-11.082-19.86-23.07-28.171-35.821l-16.981-19.125z" fill="url(#SVGID_10_)"/><path d="m231.32 324.586c-40.212-23.584-71.15-60.21-87.68-103.798-10.812-28.51-11.465-59.875-1.849-88.81 2.377-7.153 3.589-14.641 3.589-22.179l57.564-18.599-4.849-5.461-74.465 24.059c0 7.537-1.212 15.026-3.589 22.179-9.616 28.935-8.963 60.3 1.849 88.81 16.53 43.588 47.468 80.214 87.68 103.798l270.087 158.409c-1.336-5.111-2.754-10.195-4.253-15.251z" fill="url(#SVGID_11_)"/><path d="m347.086 466.198h-17.341v-47.746l-15.585-11.837-7.047 38.41c-2.25 12.266-12.941 21.173-25.411 21.173h-33.754c-9.277 0-16.797 7.52-16.797 16.797h132.732c0-9.277-7.52-16.797-16.797-16.797z" fill="url(#SVGID_12_)"/><path d="m316.629 445.025 5.883-32.066-8.352-6.343-7.047 38.41c-2.25 12.266-12.941 21.173-25.411 21.173h9.516c12.47-.001 23.161-8.908 25.411-21.174z" fill="url(#SVGID_13_)"/><path d="m257.463 466.198h-9.516c-9.277 0-16.797 7.52-16.797 16.796h9.516c.001-9.276 7.521-16.796 16.797-16.796z" fill="url(#SVGID_14_)"/><path d="m291.632 294.041c-15.562 1.733-28.172 14.24-30.016 29.789-1.029 8.674 1.194 16.801 5.609 23.323 4.885 7.215 8.456 15.233 10.558 23.688l2.156 8.672c5.688 22.878 26.231 38.939 49.806 38.939v-90.442c0-20.174-17.474-36.267-38.113-33.969z" fill="url(#SVGID_15_)"/><path d="m296.252 379.514-2.156-8.672c-2.102-8.455-5.673-16.474-10.558-23.688-4.415-6.521-6.638-14.648-5.609-23.323 1.673-14.106 12.205-25.708 25.764-29.034-3.81-.93-7.87-1.222-12.061-.755-15.562 1.733-28.172 14.24-30.016 29.789-1.029 8.674 1.194 16.801 5.609 23.323 4.885 7.215 8.456 15.233 10.558 23.688l2.156 8.672c5.688 22.878 26.231 38.939 49.805 38.939v-2.657c-16.279-5.46-29.171-18.904-33.492-36.282z" fill="url(#SVGID_16_)"/><path d="m360.043 199.375c-36.718-36.157-81.142-64.105-130.371-81.505-9.656-3.413-20.129-3.772-29.996-1.028-20.106 5.591-34.61 23.104-36.356 43.899-.095 1.135-.177 2.269-.245 3.402l96.055 92.46z" fill="url(#SVGID_17_)"/><path d="m360.043 199.375c-42.823 23.116-95.622 23.28-139.417-2.005l-57.551-33.227c-1.911 31.641 6.632 62.194 23.207 87.604l51.677 39.197 125.923 29.647 46.476-58.96c-14.45-22.726-31.355-43.586-50.315-62.256z" fill="url(#SVGID_18_)"/><path d="m123.63 109.799-1.176-19.633c-1.073-17.906-13.876-32.936-31.384-36.843l105.009 2.055s18.997 49.484 18.997 49.485l-11.352-8.485-4.334 11.915-10.655-7.976-4.32 11.911-10.652-7.977-4.321 11.911-10.654-7.977-4.321 11.911-10.651-7.977-4.314 11.909c-.001 0-15.872-14.228-15.872-14.229z" fill="url(#SVGID_19_)"/><path d="m143.135 76.274 55.28-14.812c-1.424-3.709-2.336-6.084-2.336-6.084l-105.009-2.055c17.508 3.907 30.311 18.937 31.384 36.843l.533 8.903c9.083-5.191 16.149-13.246 20.148-22.795z" fill="url(#SVGID_20_)"/><path d="m145.563 90.166c-1.073-17.906-13.876-32.936-31.384-36.843l81.9 2.055-105.009-2.055c17.508 3.907 30.311 18.937 31.384 36.843l1.176 19.633c0 .001 15.871 14.229 15.871 14.229l4.314-11.909 4.552 3.409z" fill="url(#SVGID_21_)"/><path d="m122.454 90.166.533 8.903c8.731-4.99 15.599-12.626 19.669-21.693-4.633-11.347-14.314-20.192-26.512-23.562l-25.074-.491c17.508 3.907 30.311 18.937 31.384 36.843z" fill="url(#SVGID_22_)"/><path d="m114.179 53.323c.662.148 1.317.312 1.966.491l30.65.6v-.272z" fill="url(#SVGID_23_)"/><path d="m183.711 160.741c1.746-20.796 16.25-38.309 36.356-43.9 1.051-.292 2.11-.549 3.173-.771-7.772-1.622-15.853-1.373-23.564.771-20.106 5.591-34.61 23.104-36.356 43.899-.095 1.135-.177 2.269-.245 3.402l20.155 11.637c-.099-4.977.057-9.996.481-15.038z" fill="url(#SVGID_24_)"/><path d="m163.075 164.143c-1.911 31.641 6.632 62.194 23.207 87.604l15.445 8.917c6.439 3.717 13.01 7.061 19.685 10.034-23.54-25.564-37.466-59.209-38.182-94.918z" fill="url(#SVGID_25_)"/><path d="m201.728 260.664-15.445-8.917c15.09 23.133 36.836 42.004 63.409 53.549l193.657 84.139-.533-22.744c-.838-35.784-11.195-70.698-30.006-101.15-.809-1.309-1.626-2.613-2.451-3.91-63.602 35.955-142.993 36.93-208.631-.967z" fill="url(#SVGID_26_)"/><path d="m186.282 251.747c15.09 23.133 36.836 42.004 63.41 53.549l193.657 84.139-.21-8.95-173.057-75.189c-18.878-8.202-35.32-20.101-48.67-34.598-6.675-2.973-13.246-6.316-19.685-10.034z" fill="url(#SVGID_27_)"/><path d="m196.079 55.378-112.786 30.221-15.443-57.632c-2.148-8.016 2.609-16.255 10.625-18.403l26.126-7.001c39.846-10.676 80.801 12.97 91.478 52.815z" fill="url(#SVGID_28_)"/><path d="m81.989 38.465 16.622 62.035 7.859-2.106c20.664-5.537 35.033-24.263 35.033-45.655v-28.57c-9.792-3.42-20.671-4.041-31.424-1.16l-22.674 6.076c-4.086 1.094-6.511 5.294-5.416 9.38z" fill="url(#SVGID_29_)"/><path d="m66.886 82.184 25.02-6.704 9.57 16.577c1.791 3.103.444 7.073-2.866 8.444-11.059 2.963-22.713-1.995-28.247-12.018z" fill="url(#SVGID_30_)"/><path d="m73.005 105.018c-3.379-12.611 4.105-25.573 16.716-28.953l2.186-.586.366-12.103c.096-3.178-2.454-5.806-5.633-5.806-6.404 0-12.01-4.301-13.667-10.487l-5.123-19.116-7.128 7.128c-14.382 14.382-19.999 35.345-14.735 54.991 3.397 12.676 14.884 21.49 28.007 21.49h.768z" fill="url(#SVGID_31_)"/></g></svg>